<?xml version="1.0" encoding="UTF-8"?>
<svg id="Layer_5" xmlns="http://www.w3.org/2000/svg" viewBox="0 0 159.57 230.27">
  <defs>
    <style>
      .cls-1 {
        fill: #231f20;
      }
    </style>
  </defs>
  <path class="cls-1" d="M3.46,227.64V52.56c0-13.67,4.9-25.41,14.71-35.21C27.97,7.54,39.71,2.64,53.38,2.64h50.16c13.67,0,25.41,4.92,35.21,14.77,9.8,9.84,14.71,21.56,14.71,35.16,0,20.48,0,40.72,0,61.2H22.21v6.12h131.11c0,36.95.14,70.81.14,107.76-16.64,0,14.18-.17-2.47-.17l-.15-104.22-97.61.17.15,104.22H3.46ZM22.21,111.46h81.33v-59.07c0-6.8-4.02-12.64-12.07-17.52-8.05-4.88-17.58-7.32-28.6-7.32s-20.71,2.44-28.69,7.32c-7.98,4.88-11.97,10.72-11.97,17.52v59.07Z"/>
</svg>