<?xml version="1.0" encoding="UTF-8"?>
<svg id="Layer_5" xmlns="http://www.w3.org/2000/svg" viewBox="0 0 157.84 230.44">
  <defs>
    <style>
      .cls-1 {
        fill: #231f20;
      }
    </style>
  </defs>
  <path class="cls-1" d="M3.92,227.85V2.85h100.08c13.67,0,25.41,4.92,35.21,14.77,9.8,9.84,14.71,21.56,14.71,35.16v25.08c0,13.67-4.9,25.41-14.71,35.21-.59.59-1.07,1.05-1.07,1.05H22.21s-.02,5.62-.02,5.62h112.74c-1.66.86-4.15,2-7.34,2.86-4.06,1.1-6.6,1.04-12.37,1.19l-11.24.05h-50.16v104.01s-49.92,0-49.92,0ZM7.4,111.07l56.18-.7c10.96,0,20.43-2.48,28.43-7.44,8-4.96,11.99-18.28,11.99-25.08v-25.08c0-6.8-4-12.64-11.99-17.52-8-4.88-17.47-7.32-28.43-7.32l-56.18.7v82.44Z"/>
</svg>