<?xml version="1.0" encoding="UTF-8"?>
<svg id="Layer_5" xmlns="http://www.w3.org/2000/svg" viewBox="0 0 157.84 231.28">
  <defs>
    <style>
      .cls-1 {
        fill: #231f20;
      }
    </style>
  </defs>
  <path class="cls-1" d="M3.92,221.9V-3.1h100.08c13.67,0,25.41,4.92,35.21,14.77,9.8,9.84,14.71,21.56,14.71,35.16v13.59c-.04,7.02-1.2,21.56-11.48,32.29-11.88,12.38-24.27,15.03-40.83,15.48l-79.13.05-.02,5.86c25.49.35,88.87-.21,106.49-.27,0,0,7.06-.4,14.18,2.48,2.42.98,4.78,2.31,6.69,4.64,1.31,1.6,2.01,3.18,2.41,4.09,1.17,2.7,1.51,5.12,1.62,6.73l.08,90.14h-4.53c-.13-11.95-.22-21.94-.27-29.25,0,0-.24-33.15-.15-34.02l.03-23.85c.07-1.27.11-5.89-1.87-8.91-1.89-2.88-4.57-5.16-6.92-6.07-4.58-1.78-10.75-1.58-12-1.47-1.69.15-24.65.01-49.3.01h-25.03l-.05,103.55H3.92ZM6.95,105.43h56.69c10.94,0,20.39-2.48,28.38-7.44,7.98-4.96,11.97-19.29,11.97-26.09v-25.08c0-6.8-3.99-12.64-11.97-17.52-7.98-4.88-17.44-7.32-28.38-7.32H6.95v83.45Z"/>
</svg>