<?xml version="1.0" encoding="UTF-8"?>
<svg id="Layer_5" xmlns="http://www.w3.org/2000/svg" viewBox="0 0 132.12 236.8">
  <defs>
    <style>
      .cls-1 {
        fill: #231f20;
      }
    </style>
  </defs>
  <path class="cls-1" d="M128.75,169.5c-.19-5.1-.87-8.86-1.17-10.37-.8-4.07-1.91-7.58-3.02-10.46,0,0-3.51-8.54-10.99-17.02-.37-.42-2.62-2.94-7.1-7.98-.23-.26-.42-.48-.57-.64-.16-.17-.33-.38-.39-.43-.62-.69-.44-.49-1.01-1.06-.26-.26-.24-.32-.84-.85-.57,0-1.13.01-1.7.02l-53.54.06-.02-4.91,51.09-.06-38.88-43.68c-4.92-5.47-7.38-11.33-7.38-17.58,0-8.36,2.23-14.65,6.68-18.87s11.05-6.33,19.8-6.33c13.59,0,21.48,8.36,23.67,25.08h24.84c-.08-5.59-1.05-25.02-15.78-39.1C97.54,1.06,77.95,1.29,65.19,1.43c-16.39.19-27.59,5.15-30.6,6.56-3.83,1.79-10.24,4.83-16.64,11.28C8.18,29.11,3.3,40.83,3.3,54.42v12.66c0,6.33,1.22,12.43,3.66,18.31,3.39,8.16,7.93,13.81,10.99,16.96,4.42,4.95,20.07,22.51,20.39,22.87h9.33s5.12-.02,5.12-.02l46.94-.05h.82c4.23,3.32,10.49,9.14,15.6,18.02,2.54,4.42,11.64,21.56,6.68,43.03-1.02,4.44-4.16,17.25-15.51,27.95-14.85,14.02-33.26,14.49-42.28,14.72-7.02.18-25.25.65-40.62-11.48-2.64-2.08-8.31-6.66-12.44-14.68-4.5-8.77-4.86-17.18-4.54-23.15H3.3c-.25,4.75-.68,23.39,12.54,37.38,11.75,12.44,27.87,14.42,38.19,15.69,3.25.4,10,1.02,18.49.08,13.19-1.46,22.4-5.77,24.29-6.67,4.43-2.12,10.56-5.12,16.77-11.37,5.71-5.75,9.08-11.83,11.03-16.38,4.79-11.17,4.43-21.09,4.14-28.8Z"/>
</svg>